<svg xmlns="http://www.w3.org/2000/svg" xmlns:xlink="http://www.w3.org/1999/xlink" width="500" zoomAndPan="magnify" viewBox="0 0 375 374.999991" height="500" preserveAspectRatio="xMidYMid meet" version="1.0"><defs><g/><clipPath id="5e727127f3"><path d="M 0.585938 0 L 362.359375 0 L 362.359375 361.773438 L 0.585938 361.773438 Z M 0.585938 0 " clip-rule="nonzero"/></clipPath><clipPath id="f18bcd1be2"><path d="M 181.472656 0 C 81.570312 0 0.585938 80.984375 0.585938 180.886719 C 0.585938 280.789062 81.570312 361.773438 181.472656 361.773438 C 281.371094 361.773438 362.359375 280.789062 362.359375 180.886719 C 362.359375 80.984375 281.371094 0 181.472656 0 Z M 181.472656 0 " clip-rule="nonzero"/></clipPath><clipPath id="82c4a5a522"><path d="M 13 43.328125 L 348.917969 43.328125 L 348.917969 261.578125 L 13 261.578125 Z M 13 43.328125 " clip-rule="nonzero"/></clipPath></defs><g clip-path="url(#5e727127f3)"><g clip-path="url(#f18bcd1be2)"><path fill="#0156ff" d="M 0.585938 0 L 362.359375 0 L 362.359375 361.773438 L 0.585938 361.773438 Z M 0.585938 0 " fill-opacity="1" fill-rule="nonzero"/></g></g><g clip-path="url(#82c4a5a522)"><path fill="#181425" d="M 348.59375 188.828125 L 348.59375 225.203125 L 341.300781 225.203125 L 341.300781 239.753906 L 334.011719 239.753906 L 334.011719 247.03125 L 326.722656 247.03125 L 326.722656 254.304688 L 312.140625 254.304688 L 312.140625 261.578125 L 297.558594 261.578125 L 297.558594 254.304688 L 290.269531 254.304688 L 290.269531 247.03125 L 282.980469 247.03125 L 282.980469 239.753906 L 275.691406 239.753906 L 275.691406 225.203125 L 268.398438 225.203125 L 268.398438 210.65625 L 261.109375 210.65625 L 261.109375 196.105469 L 253.820312 196.105469 L 253.820312 188.828125 L 246.527344 188.828125 L 246.527344 196.105469 L 224.65625 196.105469 L 224.65625 188.828125 L 210.078125 188.828125 L 210.078125 181.554688 L 151.757812 181.554688 L 151.757812 188.828125 L 137.175781 188.828125 L 137.175781 196.105469 L 115.304688 196.105469 L 115.304688 188.828125 L 108.015625 188.828125 L 108.015625 196.105469 L 100.722656 196.105469 L 100.722656 210.65625 L 93.433594 210.65625 L 93.433594 225.203125 L 86.144531 225.203125 L 86.144531 239.753906 L 78.855469 239.753906 L 78.855469 247.03125 L 71.5625 247.03125 L 71.5625 254.304688 L 64.273438 254.304688 L 64.273438 261.578125 L 49.691406 261.578125 L 49.691406 254.304688 L 35.113281 254.304688 L 35.113281 247.03125 L 27.820312 247.03125 L 27.820312 239.753906 L 20.53125 239.753906 L 20.53125 225.203125 L 13.242188 225.203125 L 13.242188 188.828125 L 20.53125 188.828125 L 20.53125 145.179688 L 27.820312 145.179688 L 27.820312 123.355469 L 35.113281 123.355469 L 35.113281 94.253906 L 42.402344 94.253906 L 42.402344 79.703125 L 49.691406 79.703125 L 49.691406 72.429688 L 56.984375 72.429688 L 56.984375 65.15625 L 64.273438 65.15625 L 64.273438 50.605469 L 71.5625 50.605469 L 71.5625 43.328125 L 100.722656 43.328125 L 100.722656 50.605469 L 108.015625 50.605469 L 108.015625 65.15625 L 129.886719 65.15625 L 129.886719 72.429688 L 231.949219 72.429688 L 231.949219 65.15625 L 253.820312 65.15625 L 253.820312 50.605469 L 261.109375 50.605469 L 261.109375 43.328125 L 290.269531 43.328125 L 290.269531 50.605469 L 297.558594 50.605469 L 297.558594 65.15625 L 304.851562 65.15625 L 304.851562 72.429688 L 312.140625 72.429688 L 312.140625 79.703125 L 319.429688 79.703125 L 319.429688 94.253906 L 326.722656 94.253906 L 326.722656 123.355469 L 334.011719 123.355469 L 334.011719 145.179688 L 341.300781 145.179688 L 341.300781 188.828125 Z M 348.59375 188.828125 " fill-opacity="1" fill-rule="nonzero"/><path fill="#181425" d="M 304.851562 65.15625 L 304.851562 72.429688 L 297.558594 72.429688 L 297.558594 65.15625 Z M 304.851562 72.429688 L 304.851562 79.703125 L 312.140625 79.703125 L 312.140625 72.429688 Z M 312.140625 79.703125 L 312.140625 94.253906 L 319.429688 94.253906 L 319.429688 79.703125 Z M 319.429688 94.253906 L 319.429688 123.355469 L 326.722656 123.355469 L 326.722656 94.253906 Z M 326.722656 123.355469 L 326.722656 145.179688 L 334.011719 145.179688 L 334.011719 123.355469 Z M 334.011719 145.179688 L 334.011719 188.828125 L 341.300781 188.828125 L 341.300781 145.179688 Z M 341.300781 188.828125 L 341.300781 225.203125 L 348.59375 225.203125 L 348.59375 188.828125 Z M 334.011719 239.753906 L 341.300781 239.753906 L 341.300781 225.203125 L 334.011719 225.203125 Z M 326.722656 247.03125 L 334.011719 247.03125 L 334.011719 239.753906 L 326.722656 239.753906 Z M 312.140625 254.304688 L 326.722656 254.304688 L 326.722656 247.03125 L 312.140625 247.03125 Z M 297.558594 261.578125 L 312.140625 261.578125 L 312.140625 254.304688 L 297.558594 254.304688 Z M 290.269531 247.03125 L 290.269531 254.304688 L 297.558594 254.304688 L 297.558594 247.03125 Z M 282.980469 239.753906 L 282.980469 247.03125 L 290.269531 247.03125 L 290.269531 239.753906 Z M 275.691406 225.203125 L 275.691406 239.753906 L 282.980469 239.753906 L 282.980469 225.203125 Z M 268.398438 210.65625 L 268.398438 225.203125 L 275.691406 225.203125 L 275.691406 210.65625 Z M 261.109375 196.105469 L 261.109375 210.65625 L 268.398438 210.65625 L 268.398438 196.105469 Z M 253.820312 181.554688 L 246.527344 181.554688 L 246.527344 188.828125 L 253.820312 188.828125 L 253.820312 196.105469 L 261.109375 196.105469 L 261.109375 181.554688 Z M 224.65625 196.105469 L 246.527344 196.105469 L 246.527344 188.828125 L 224.65625 188.828125 Z M 210.078125 181.554688 L 210.078125 188.828125 L 224.65625 188.828125 L 224.65625 181.554688 Z M 180.917969 174.28125 L 151.757812 174.28125 L 151.757812 181.554688 L 210.078125 181.554688 L 210.078125 174.28125 Z M 224.65625 130.628906 L 224.65625 137.90625 L 239.238281 137.90625 L 239.238281 130.628906 Z M 246.527344 145.179688 L 246.527344 137.90625 L 239.238281 137.90625 L 239.238281 145.179688 Z M 253.820312 159.730469 L 253.820312 145.179688 L 246.527344 145.179688 L 246.527344 159.730469 Z M 239.238281 167.003906 L 246.527344 167.003906 L 246.527344 159.730469 L 239.238281 159.730469 Z M 224.65625 174.28125 L 239.238281 174.28125 L 239.238281 167.003906 L 224.65625 167.003906 Z M 217.367188 159.730469 L 217.367188 167.003906 L 224.65625 167.003906 L 224.65625 159.730469 Z M 210.078125 145.179688 L 210.078125 159.730469 L 217.367188 159.730469 L 217.367188 145.179688 Z M 224.65625 137.90625 L 217.367188 137.90625 L 217.367188 145.179688 L 224.65625 145.179688 Z M 231.949219 72.429688 L 253.820312 72.429688 L 253.820312 65.15625 L 231.949219 65.15625 Z M 290.269531 43.328125 L 261.109375 43.328125 L 261.109375 50.605469 L 290.269531 50.605469 Z M 297.558594 50.605469 L 290.269531 50.605469 L 290.269531 57.878906 L 261.109375 57.878906 L 261.109375 50.605469 L 253.820312 50.605469 L 253.820312 65.15625 L 297.558594 65.15625 Z M 239.238281 79.703125 L 239.238281 94.253906 L 246.527344 94.253906 L 246.527344 79.703125 Z M 49.691406 79.703125 L 42.402344 79.703125 L 42.402344 94.253906 L 49.691406 94.253906 Z M 42.402344 116.078125 L 35.113281 116.078125 L 35.113281 123.355469 L 42.402344 123.355469 Z M 27.820312 145.179688 L 20.53125 145.179688 L 20.53125 159.730469 L 27.820312 159.730469 Z M 20.53125 188.828125 L 13.242188 188.828125 L 13.242188 210.65625 L 20.53125 210.65625 Z M 20.53125 232.480469 L 20.53125 239.753906 L 27.820312 239.753906 L 27.820312 232.480469 Z M 27.820312 239.753906 L 27.820312 247.03125 L 35.113281 247.03125 L 35.113281 239.753906 Z M 35.113281 247.03125 L 35.113281 254.304688 L 49.691406 254.304688 L 49.691406 247.03125 Z M 49.691406 261.578125 L 64.273438 261.578125 L 64.273438 254.304688 L 49.691406 254.304688 Z M 64.273438 254.304688 L 71.5625 254.304688 L 71.5625 247.03125 L 64.273438 247.03125 Z M 71.5625 247.03125 L 78.855469 247.03125 L 78.855469 239.753906 L 71.5625 239.753906 Z M 78.855469 239.753906 L 86.144531 239.753906 L 86.144531 225.203125 L 78.855469 225.203125 Z M 86.144531 225.203125 L 93.433594 225.203125 L 93.433594 210.65625 L 86.144531 210.65625 Z M 93.433594 210.65625 L 100.722656 210.65625 L 100.722656 196.105469 L 93.433594 196.105469 Z M 108.015625 181.554688 L 100.722656 181.554688 L 100.722656 196.105469 L 108.015625 196.105469 L 108.015625 188.828125 L 115.304688 188.828125 L 115.304688 181.554688 Z M 115.304688 196.105469 L 137.175781 196.105469 L 137.175781 188.828125 L 115.304688 188.828125 Z M 137.175781 188.828125 L 151.757812 188.828125 L 151.757812 181.554688 L 137.175781 181.554688 Z M 122.59375 130.628906 L 122.59375 137.90625 L 137.175781 137.90625 L 137.175781 130.628906 Z M 122.59375 137.90625 L 115.304688 137.90625 L 115.304688 145.179688 L 122.59375 145.179688 Z M 108.015625 145.179688 L 108.015625 159.730469 L 115.304688 159.730469 L 115.304688 145.179688 Z M 115.304688 159.730469 L 115.304688 167.003906 L 122.59375 167.003906 L 122.59375 159.730469 Z M 122.59375 174.28125 L 137.175781 174.28125 L 137.175781 167.003906 L 122.59375 167.003906 Z M 137.175781 167.003906 L 144.464844 167.003906 L 144.464844 159.730469 L 137.175781 159.730469 Z M 151.757812 159.730469 L 151.757812 145.179688 L 144.464844 145.179688 L 144.464844 159.730469 Z M 144.464844 145.179688 L 144.464844 137.90625 L 137.175781 137.90625 L 137.175781 145.179688 Z M 108.015625 65.15625 L 108.015625 72.429688 L 129.886719 72.429688 L 129.886719 65.15625 Z M 108.015625 50.605469 L 100.722656 50.605469 L 100.722656 57.878906 L 71.5625 57.878906 L 71.5625 50.605469 L 64.273438 50.605469 L 64.273438 65.15625 L 108.015625 65.15625 Z M 100.722656 43.328125 L 71.5625 43.328125 L 71.5625 50.605469 L 100.722656 50.605469 Z M 129.886719 72.429688 L 129.886719 116.078125 L 137.175781 116.078125 L 137.175781 79.703125 L 224.65625 79.703125 L 224.65625 116.078125 L 231.949219 116.078125 L 231.949219 72.429688 Z M 122.59375 79.703125 L 115.304688 79.703125 L 115.304688 94.253906 L 122.59375 94.253906 Z M 137.175781 116.078125 L 137.175781 123.355469 L 224.65625 123.355469 L 224.65625 116.078125 Z M 282.980469 72.429688 L 268.398438 72.429688 L 268.398438 79.703125 L 282.980469 79.703125 Z M 290.269531 94.253906 L 290.269531 79.703125 L 282.980469 79.703125 L 282.980469 94.253906 Z M 282.980469 94.253906 L 268.398438 94.253906 L 268.398438 101.53125 L 282.980469 101.53125 Z M 268.398438 79.703125 L 261.109375 79.703125 L 261.109375 94.253906 L 268.398438 94.253906 Z M 304.851562 101.53125 L 304.851562 94.253906 L 290.269531 94.253906 L 290.269531 101.53125 Z M 312.140625 116.078125 L 312.140625 101.53125 L 304.851562 101.53125 L 304.851562 116.078125 Z M 290.269531 123.355469 L 304.851562 123.355469 L 304.851562 116.078125 L 290.269531 116.078125 Z M 290.269531 116.078125 L 290.269531 101.53125 L 282.980469 101.53125 L 282.980469 116.078125 Z M 261.109375 101.53125 L 261.109375 94.253906 L 246.527344 94.253906 L 246.527344 101.53125 Z M 268.398438 116.078125 L 268.398438 101.53125 L 261.109375 101.53125 L 261.109375 116.078125 Z M 246.527344 116.078125 L 246.527344 123.355469 L 261.109375 123.355469 L 261.109375 116.078125 Z M 239.238281 101.53125 L 239.238281 116.078125 L 246.527344 116.078125 L 246.527344 101.53125 Z M 268.398438 123.355469 L 282.980469 123.355469 L 282.980469 116.078125 L 268.398438 116.078125 Z M 282.980469 137.90625 L 290.269531 137.90625 L 290.269531 123.355469 L 282.980469 123.355469 Z M 268.398438 145.179688 L 282.980469 145.179688 L 282.980469 137.90625 L 268.398438 137.90625 Z M 261.109375 123.355469 L 261.109375 137.90625 L 268.398438 137.90625 L 268.398438 123.355469 Z M 93.433594 72.429688 L 78.855469 72.429688 L 78.855469 79.703125 L 93.433594 79.703125 Z M 100.722656 94.253906 L 100.722656 79.703125 L 93.433594 79.703125 L 93.433594 94.253906 Z M 93.433594 94.253906 L 78.855469 94.253906 L 78.855469 101.53125 L 93.433594 101.53125 Z M 78.855469 79.703125 L 71.5625 79.703125 L 71.5625 94.253906 L 78.855469 94.253906 Z M 115.304688 101.53125 L 115.304688 94.253906 L 100.722656 94.253906 L 100.722656 101.53125 Z M 122.59375 116.078125 L 122.59375 101.53125 L 115.304688 101.53125 L 115.304688 116.078125 Z M 100.722656 123.355469 L 115.304688 123.355469 L 115.304688 116.078125 L 100.722656 116.078125 Z M 100.722656 116.078125 L 100.722656 101.53125 L 93.433594 101.53125 L 93.433594 116.078125 Z M 71.5625 94.253906 L 56.984375 94.253906 L 56.984375 101.53125 L 71.5625 101.53125 Z M 78.855469 101.53125 L 71.5625 101.53125 L 71.5625 116.078125 L 78.855469 116.078125 Z M 56.984375 116.078125 L 56.984375 123.355469 L 71.5625 123.355469 L 71.5625 116.078125 Z M 49.691406 116.078125 L 56.984375 116.078125 L 56.984375 101.53125 L 49.691406 101.53125 Z M 78.855469 123.355469 L 93.433594 123.355469 L 93.433594 116.078125 L 78.855469 116.078125 Z M 93.433594 137.90625 L 100.722656 137.90625 L 100.722656 123.355469 L 93.433594 123.355469 Z M 78.855469 145.179688 L 93.433594 145.179688 L 93.433594 137.90625 L 78.855469 137.90625 Z M 71.5625 123.355469 L 71.5625 137.90625 L 78.855469 137.90625 L 78.855469 123.355469 Z M 27.820312 174.28125 L 20.53125 174.28125 L 20.53125 188.828125 L 27.820312 188.828125 Z M 27.820312 174.28125 " fill-opacity="1" fill-rule="nonzero"/></g><path fill="#feae34" d="M 334.011719 188.828125 L 334.011719 145.179688 L 326.722656 145.179688 L 326.722656 123.355469 L 319.429688 123.355469 L 319.429688 94.253906 L 312.140625 94.253906 L 312.140625 79.703125 L 304.851562 79.703125 L 304.851562 72.429688 L 297.558594 72.429688 L 297.558594 65.15625 L 253.820312 65.15625 L 253.820312 72.429688 L 231.949219 72.429688 L 231.949219 116.078125 L 224.65625 116.078125 L 224.65625 123.355469 L 137.175781 123.355469 L 137.175781 116.078125 L 129.886719 116.078125 L 129.886719 72.429688 L 108.015625 72.429688 L 108.015625 65.15625 L 64.273438 65.15625 L 64.273438 72.429688 L 56.984375 72.429688 L 56.984375 79.703125 L 49.691406 79.703125 L 49.691406 94.253906 L 42.402344 94.253906 L 42.402344 123.355469 L 35.113281 123.355469 L 35.113281 145.179688 L 27.820312 145.179688 L 27.820312 188.828125 L 20.53125 188.828125 L 20.53125 225.203125 L 27.820312 225.203125 L 27.820312 239.753906 L 35.113281 239.753906 L 35.113281 247.03125 L 49.691406 247.03125 L 49.691406 254.304688 L 64.273438 254.304688 L 64.273438 247.03125 L 71.5625 247.03125 L 71.5625 239.753906 L 78.855469 239.753906 L 78.855469 225.203125 L 86.144531 225.203125 L 86.144531 210.65625 L 93.433594 210.65625 L 93.433594 196.105469 L 100.722656 196.105469 L 100.722656 181.554688 L 115.304688 181.554688 L 115.304688 188.828125 L 137.175781 188.828125 L 137.175781 181.554688 L 151.757812 181.554688 L 151.757812 174.28125 L 210.078125 174.28125 L 210.078125 181.554688 L 224.65625 181.554688 L 224.65625 188.828125 L 246.527344 188.828125 L 246.527344 181.554688 L 261.109375 181.554688 L 261.109375 196.105469 L 268.398438 196.105469 L 268.398438 210.65625 L 275.691406 210.65625 L 275.691406 225.203125 L 282.980469 225.203125 L 282.980469 239.753906 L 290.269531 239.753906 L 290.269531 247.03125 L 297.558594 247.03125 L 297.558594 254.304688 L 312.140625 254.304688 L 312.140625 247.03125 L 326.722656 247.03125 L 326.722656 239.753906 L 334.011719 239.753906 L 334.011719 225.203125 L 341.300781 225.203125 L 341.300781 188.828125 Z M 100.722656 123.355469 L 100.722656 137.90625 L 93.433594 137.90625 L 93.433594 145.179688 L 78.855469 145.179688 L 78.855469 137.90625 L 71.5625 137.90625 L 71.5625 123.355469 L 56.984375 123.355469 L 56.984375 116.078125 L 49.691406 116.078125 L 49.691406 101.53125 L 56.984375 101.53125 L 56.984375 94.253906 L 71.5625 94.253906 L 71.5625 79.703125 L 78.855469 79.703125 L 78.855469 72.429688 L 93.433594 72.429688 L 93.433594 79.703125 L 100.722656 79.703125 L 100.722656 94.253906 L 115.304688 94.253906 L 115.304688 79.703125 L 122.59375 79.703125 L 122.59375 94.253906 L 115.304688 94.253906 L 115.304688 101.53125 L 122.59375 101.53125 L 122.59375 116.078125 L 115.304688 116.078125 L 115.304688 123.355469 Z M 151.757812 159.730469 L 144.464844 159.730469 L 144.464844 167.003906 L 137.175781 167.003906 L 137.175781 174.28125 L 122.59375 174.28125 L 122.59375 167.003906 L 115.304688 167.003906 L 115.304688 159.730469 L 108.015625 159.730469 L 108.015625 145.179688 L 115.304688 145.179688 L 115.304688 137.90625 L 122.59375 137.90625 L 122.59375 130.628906 L 137.175781 130.628906 L 137.175781 137.90625 L 144.464844 137.90625 L 144.464844 145.179688 L 151.757812 145.179688 Z M 195.496094 145.179688 L 188.207031 145.179688 L 188.207031 137.90625 L 173.625 137.90625 L 173.625 145.179688 L 166.335938 145.179688 L 166.335938 137.90625 L 151.757812 137.90625 L 151.757812 130.628906 L 166.335938 130.628906 L 166.335938 137.90625 L 173.625 137.90625 L 173.625 130.628906 L 195.496094 130.628906 Z M 202.789062 137.90625 L 202.789062 130.628906 L 210.078125 130.628906 L 210.078125 137.90625 Z M 253.820312 159.730469 L 246.527344 159.730469 L 246.527344 167.003906 L 239.238281 167.003906 L 239.238281 174.28125 L 224.65625 174.28125 L 224.65625 167.003906 L 217.367188 167.003906 L 217.367188 159.730469 L 210.078125 159.730469 L 210.078125 145.179688 L 217.367188 145.179688 L 217.367188 137.90625 L 224.65625 137.90625 L 224.65625 130.628906 L 239.238281 130.628906 L 239.238281 137.90625 L 246.527344 137.90625 L 246.527344 145.179688 L 253.820312 145.179688 Z M 312.140625 116.078125 L 304.851562 116.078125 L 304.851562 123.355469 L 290.269531 123.355469 L 290.269531 137.90625 L 282.980469 137.90625 L 282.980469 145.179688 L 268.398438 145.179688 L 268.398438 137.90625 L 261.109375 137.90625 L 261.109375 123.355469 L 246.527344 123.355469 L 246.527344 116.078125 L 239.238281 116.078125 L 239.238281 101.53125 L 246.527344 101.53125 L 246.527344 94.253906 L 239.238281 94.253906 L 239.238281 79.703125 L 246.527344 79.703125 L 246.527344 94.253906 L 261.109375 94.253906 L 261.109375 79.703125 L 268.398438 79.703125 L 268.398438 72.429688 L 282.980469 72.429688 L 282.980469 79.703125 L 290.269531 79.703125 L 290.269531 94.253906 L 304.851562 94.253906 L 304.851562 101.53125 L 312.140625 101.53125 Z M 290.269531 94.253906 L 290.269531 101.53125 L 282.980469 101.53125 L 282.980469 94.253906 Z M 268.398438 94.253906 L 268.398438 101.53125 L 261.109375 101.53125 L 261.109375 94.253906 Z M 290.269531 116.078125 L 290.269531 123.355469 L 282.980469 123.355469 L 282.980469 116.078125 Z M 268.398438 116.078125 L 268.398438 123.355469 L 261.109375 123.355469 L 261.109375 116.078125 Z M 100.722656 94.253906 L 100.722656 101.53125 L 93.433594 101.53125 L 93.433594 94.253906 Z M 78.855469 94.253906 L 78.855469 101.53125 L 71.5625 101.53125 L 71.5625 94.253906 Z M 100.722656 116.078125 L 100.722656 123.355469 L 93.433594 123.355469 L 93.433594 116.078125 Z M 78.855469 116.078125 L 78.855469 123.355469 L 71.5625 123.355469 L 71.5625 116.078125 Z M 282.980469 101.53125 L 282.980469 116.078125 L 268.398438 116.078125 L 268.398438 101.53125 Z M 93.433594 101.53125 L 93.433594 116.078125 L 78.855469 116.078125 L 78.855469 101.53125 Z M 27.820312 145.179688 L 35.113281 145.179688 L 35.113281 123.355469 L 27.820312 123.355469 Z M 35.113281 116.078125 L 42.402344 116.078125 L 42.402344 94.253906 L 35.113281 94.253906 Z M 49.691406 79.703125 L 56.984375 79.703125 L 56.984375 72.429688 L 49.691406 72.429688 Z M 56.984375 72.429688 L 64.273438 72.429688 L 64.273438 65.15625 L 56.984375 65.15625 Z M 27.820312 174.28125 L 20.53125 174.28125 L 20.53125 159.730469 L 27.820312 159.730469 Z M 20.53125 225.203125 L 13.242188 225.203125 L 13.242188 210.65625 L 20.53125 210.65625 Z M 20.53125 225.203125 L 27.820312 225.203125 L 27.820312 232.480469 L 20.53125 232.480469 Z M 20.53125 225.203125 " fill-opacity="1" fill-rule="nonzero"/><path fill="#5a6988" d="M 290.269531 50.605469 L 290.269531 57.878906 L 261.109375 57.878906 L 261.109375 50.605469 Z M 71.5625 50.605469 L 71.5625 57.878906 L 100.722656 57.878906 L 100.722656 50.605469 Z M 239.238281 145.179688 L 239.238281 137.90625 L 224.65625 137.90625 L 224.65625 145.179688 L 217.367188 145.179688 L 217.367188 159.730469 L 224.65625 159.730469 L 224.65625 167.003906 L 239.238281 167.003906 L 239.238281 159.730469 L 246.527344 159.730469 L 246.527344 145.179688 Z M 137.175781 145.179688 L 137.175781 137.90625 L 122.59375 137.90625 L 122.59375 145.179688 L 115.304688 145.179688 L 115.304688 159.730469 L 122.59375 159.730469 L 122.59375 167.003906 L 137.175781 167.003906 L 137.175781 159.730469 L 144.464844 159.730469 L 144.464844 145.179688 Z M 268.398438 79.703125 L 268.398438 94.253906 L 282.980469 94.253906 L 282.980469 79.703125 Z M 290.269531 101.53125 L 290.269531 116.078125 L 304.851562 116.078125 L 304.851562 101.53125 Z M 246.527344 101.53125 L 246.527344 116.078125 L 261.109375 116.078125 L 261.109375 101.53125 Z M 268.398438 123.355469 L 268.398438 137.90625 L 282.980469 137.90625 L 282.980469 123.355469 Z M 78.855469 79.703125 L 78.855469 94.253906 L 93.433594 94.253906 L 93.433594 79.703125 Z M 100.722656 101.53125 L 100.722656 116.078125 L 115.304688 116.078125 L 115.304688 101.53125 Z M 56.984375 101.53125 L 56.984375 116.078125 L 71.5625 116.078125 L 71.5625 101.53125 Z M 78.855469 123.355469 L 78.855469 137.90625 L 93.433594 137.90625 L 93.433594 123.355469 Z M 78.855469 123.355469 " fill-opacity="1" fill-rule="nonzero"/><path fill="#262b44" d="M 137.175781 79.703125 L 224.65625 79.703125 L 224.65625 116.078125 L 137.175781 116.078125 Z M 137.175781 79.703125 " fill-opacity="1" fill-rule="nonzero"/><path fill="#f77622" d="M 56.984375 123.355469 L 49.691406 123.355469 L 49.691406 116.078125 L 56.984375 116.078125 Z M 71.5625 130.628906 L 71.5625 123.355469 L 56.984375 123.355469 L 56.984375 130.628906 Z M 78.855469 116.078125 L 71.5625 116.078125 L 71.5625 123.355469 L 78.855469 123.355469 Z M 93.433594 108.804688 L 93.433594 101.53125 L 78.855469 101.53125 L 78.855469 108.804688 Z M 100.722656 94.253906 L 93.433594 94.253906 L 93.433594 101.53125 L 100.722656 101.53125 Z M 78.855469 94.253906 L 71.5625 94.253906 L 71.5625 101.53125 L 78.855469 101.53125 Z M 108.015625 79.703125 L 100.722656 79.703125 L 100.722656 94.253906 L 108.015625 94.253906 Z M 93.433594 72.429688 L 93.433594 79.703125 L 100.722656 79.703125 L 100.722656 72.429688 Z M 115.304688 94.253906 L 115.304688 101.53125 L 122.59375 101.53125 L 122.59375 94.253906 Z M 129.886719 101.53125 L 122.59375 101.53125 L 122.59375 116.078125 L 129.886719 116.078125 Z M 122.59375 116.078125 L 115.304688 116.078125 L 115.304688 123.355469 L 122.59375 123.355469 Z M 100.722656 130.628906 L 100.722656 137.90625 L 108.015625 137.90625 L 108.015625 130.628906 L 115.304688 130.628906 L 115.304688 123.355469 L 100.722656 123.355469 Z M 93.433594 145.179688 L 100.722656 145.179688 L 100.722656 137.90625 L 93.433594 137.90625 Z M 78.855469 152.453125 L 93.433594 152.453125 L 93.433594 145.179688 L 78.855469 145.179688 Z M 71.5625 137.90625 L 71.5625 145.179688 L 78.855469 145.179688 L 78.855469 137.90625 Z M 239.238281 116.078125 L 239.238281 123.355469 L 246.527344 123.355469 L 246.527344 116.078125 Z M 261.109375 123.355469 L 246.527344 123.355469 L 246.527344 130.628906 L 261.109375 130.628906 Z M 268.398438 116.078125 L 261.109375 116.078125 L 261.109375 123.355469 L 268.398438 123.355469 Z M 282.980469 108.804688 L 282.980469 101.53125 L 268.398438 101.53125 L 268.398438 108.804688 Z M 290.269531 94.253906 L 282.980469 94.253906 L 282.980469 101.53125 L 290.269531 101.53125 Z M 268.398438 94.253906 L 261.109375 94.253906 L 261.109375 101.53125 L 268.398438 101.53125 Z M 297.558594 79.703125 L 290.269531 79.703125 L 290.269531 94.253906 L 297.558594 94.253906 Z M 282.980469 72.429688 L 282.980469 79.703125 L 290.269531 79.703125 L 290.269531 72.429688 Z M 304.851562 94.253906 L 304.851562 101.53125 L 312.140625 101.53125 L 312.140625 94.253906 Z M 319.429688 101.53125 L 312.140625 101.53125 L 312.140625 116.078125 L 319.429688 116.078125 Z M 312.140625 116.078125 L 304.851562 116.078125 L 304.851562 123.355469 L 312.140625 123.355469 Z M 297.558594 130.628906 L 304.851562 130.628906 L 304.851562 123.355469 L 290.269531 123.355469 L 290.269531 137.90625 L 297.558594 137.90625 Z M 290.269531 137.90625 L 282.980469 137.90625 L 282.980469 145.179688 L 290.269531 145.179688 Z M 282.980469 152.453125 L 282.980469 145.179688 L 268.398438 145.179688 L 268.398438 152.453125 Z M 268.398438 137.90625 L 261.109375 137.90625 L 261.109375 145.179688 L 268.398438 145.179688 Z M 86.144531 167.003906 L 71.5625 167.003906 L 71.5625 174.28125 L 78.855469 174.28125 L 78.855469 181.554688 L 71.5625 181.554688 L 71.5625 188.828125 L 78.855469 188.828125 L 78.855469 196.105469 L 71.5625 196.105469 L 71.5625 203.378906 L 78.855469 203.378906 L 78.855469 210.65625 L 71.5625 210.65625 L 71.5625 217.929688 L 78.855469 217.929688 L 78.855469 225.203125 L 86.144531 225.203125 L 86.144531 210.65625 L 93.433594 210.65625 L 93.433594 196.105469 L 100.722656 196.105469 L 100.722656 181.554688 L 108.015625 181.554688 L 108.015625 174.28125 L 86.144531 174.28125 Z M 56.984375 159.730469 L 56.984375 167.003906 L 71.5625 167.003906 L 71.5625 159.730469 Z M 49.691406 152.453125 L 49.691406 159.730469 L 56.984375 159.730469 L 56.984375 152.453125 Z M 42.402344 145.179688 L 42.402344 152.453125 L 49.691406 152.453125 L 49.691406 145.179688 Z M 35.113281 137.90625 L 35.113281 145.179688 L 42.402344 145.179688 L 42.402344 137.90625 Z M 71.5625 232.480469 L 64.273438 232.480469 L 64.273438 239.753906 L 56.984375 239.753906 L 56.984375 247.03125 L 49.691406 247.03125 L 49.691406 254.304688 L 64.273438 254.304688 L 64.273438 247.03125 L 71.5625 247.03125 L 71.5625 239.753906 L 78.855469 239.753906 L 78.855469 225.203125 L 71.5625 225.203125 Z M 64.273438 174.28125 L 64.273438 181.554688 L 71.5625 181.554688 L 71.5625 174.28125 Z M 64.273438 188.828125 L 64.273438 196.105469 L 71.5625 196.105469 L 71.5625 188.828125 Z M 64.273438 203.378906 L 64.273438 210.65625 L 71.5625 210.65625 L 71.5625 203.378906 Z M 64.273438 217.929688 L 64.273438 225.203125 L 71.5625 225.203125 L 71.5625 217.929688 Z M 246.527344 181.554688 L 275.691406 181.554688 L 275.691406 174.28125 L 246.527344 174.28125 Z M 275.691406 174.28125 L 290.269531 174.28125 L 290.269531 167.003906 L 275.691406 167.003906 Z M 290.269531 167.003906 L 304.851562 167.003906 L 304.851562 159.730469 L 290.269531 159.730469 Z M 304.851562 152.453125 L 304.851562 159.730469 L 312.140625 159.730469 L 312.140625 152.453125 Z M 334.011719 188.828125 L 334.011719 145.179688 L 326.722656 145.179688 L 326.722656 137.90625 L 319.429688 137.90625 L 319.429688 145.179688 L 312.140625 145.179688 L 312.140625 152.453125 L 319.429688 152.453125 L 319.429688 159.730469 L 326.722656 159.730469 L 326.722656 167.003906 L 319.429688 167.003906 L 319.429688 174.28125 L 326.722656 174.28125 L 326.722656 181.554688 L 319.429688 181.554688 L 319.429688 188.828125 L 326.722656 188.828125 L 326.722656 196.105469 L 319.429688 196.105469 L 319.429688 203.378906 L 326.722656 203.378906 L 326.722656 210.65625 L 319.429688 210.65625 L 319.429688 217.929688 L 326.722656 217.929688 L 326.722656 225.203125 L 319.429688 225.203125 L 319.429688 232.480469 L 326.722656 232.480469 L 326.722656 239.753906 L 334.011719 239.753906 L 334.011719 225.203125 L 341.300781 225.203125 L 341.300781 188.828125 Z M 312.140625 159.730469 L 312.140625 167.003906 L 319.429688 167.003906 L 319.429688 159.730469 Z M 312.140625 174.28125 L 312.140625 181.554688 L 319.429688 181.554688 L 319.429688 174.28125 Z M 312.140625 188.828125 L 312.140625 196.105469 L 319.429688 196.105469 L 319.429688 188.828125 Z M 312.140625 203.378906 L 312.140625 210.65625 L 319.429688 210.65625 L 319.429688 203.378906 Z M 312.140625 217.929688 L 312.140625 225.203125 L 319.429688 225.203125 L 319.429688 217.929688 Z M 319.429688 232.480469 L 312.140625 232.480469 L 312.140625 239.753906 L 304.851562 239.753906 L 304.851562 247.03125 L 297.558594 247.03125 L 297.558594 254.304688 L 312.140625 254.304688 L 312.140625 247.03125 L 326.722656 247.03125 L 326.722656 239.753906 L 319.429688 239.753906 Z M 180.917969 167.003906 L 180.917969 174.28125 L 210.078125 174.28125 L 210.078125 167.003906 Z M 115.304688 167.003906 L 115.304688 174.28125 L 122.59375 174.28125 L 122.59375 167.003906 Z M 108.015625 159.730469 L 108.015625 167.003906 L 115.304688 167.003906 L 115.304688 159.730469 Z M 137.175781 174.28125 L 122.59375 174.28125 L 122.59375 181.554688 L 115.304688 181.554688 L 115.304688 188.828125 L 137.175781 188.828125 L 137.175781 181.554688 L 151.757812 181.554688 L 151.757812 174.28125 L 144.464844 174.28125 L 144.464844 167.003906 L 137.175781 167.003906 Z M 144.464844 167.003906 L 151.757812 167.003906 L 151.757812 159.730469 L 144.464844 159.730469 Z M 151.757812 159.730469 L 159.046875 159.730469 L 159.046875 145.179688 L 151.757812 145.179688 Z M 144.464844 137.90625 L 144.464844 145.179688 L 151.757812 145.179688 L 151.757812 137.90625 Z M 137.175781 130.628906 L 137.175781 137.90625 L 144.464844 137.90625 L 144.464844 130.628906 Z M 217.367188 159.730469 L 210.078125 159.730469 L 210.078125 167.003906 L 217.367188 167.003906 Z M 239.238281 174.28125 L 224.65625 174.28125 L 224.65625 167.003906 L 217.367188 167.003906 L 217.367188 174.28125 L 210.078125 174.28125 L 210.078125 181.554688 L 224.65625 181.554688 L 224.65625 188.828125 L 246.527344 188.828125 L 246.527344 181.554688 L 239.238281 181.554688 Z M 246.527344 167.003906 L 239.238281 167.003906 L 239.238281 174.28125 L 246.527344 174.28125 Z M 253.820312 159.730469 L 246.527344 159.730469 L 246.527344 167.003906 L 253.820312 167.003906 Z M 261.109375 145.179688 L 253.820312 145.179688 L 253.820312 159.730469 L 261.109375 159.730469 Z M 246.527344 137.90625 L 246.527344 145.179688 L 253.820312 145.179688 L 253.820312 137.90625 Z M 239.238281 130.628906 L 239.238281 137.90625 L 246.527344 137.90625 L 246.527344 130.628906 Z M 239.238281 130.628906 " fill-opacity="1" fill-rule="nonzero"/><path fill="#262b44" d="M 275.691406 50.605469 L 290.269531 50.605469 L 290.269531 57.878906 L 275.691406 57.878906 Z M 86.144531 57.878906 L 100.722656 57.878906 L 100.722656 50.605469 L 86.144531 50.605469 Z M 239.238281 159.730469 L 246.527344 159.730469 L 246.527344 145.179688 L 239.238281 145.179688 Z M 224.65625 167.003906 L 239.238281 167.003906 L 239.238281 159.730469 L 224.65625 159.730469 Z M 137.175781 159.730469 L 144.464844 159.730469 L 144.464844 145.179688 L 137.175781 145.179688 Z M 122.59375 167.003906 L 137.175781 167.003906 L 137.175781 159.730469 L 122.59375 159.730469 Z M 268.398438 137.90625 L 282.980469 137.90625 L 282.980469 130.628906 L 268.398438 130.628906 Z M 290.269531 116.078125 L 304.851562 116.078125 L 304.851562 108.804688 L 290.269531 108.804688 Z M 246.527344 116.078125 L 261.109375 116.078125 L 261.109375 108.804688 L 246.527344 108.804688 Z M 268.398438 94.253906 L 282.980469 94.253906 L 282.980469 86.980469 L 268.398438 86.980469 Z M 100.722656 116.078125 L 115.304688 116.078125 L 115.304688 108.804688 L 100.722656 108.804688 Z M 78.855469 137.90625 L 93.433594 137.90625 L 93.433594 130.628906 L 78.855469 130.628906 Z M 78.855469 94.253906 L 93.433594 94.253906 L 93.433594 86.980469 L 78.855469 86.980469 Z M 56.984375 116.078125 L 71.5625 116.078125 L 71.5625 108.804688 L 56.984375 108.804688 Z M 56.984375 116.078125 " fill-opacity="1" fill-rule="nonzero"/><path fill="#c0cbdc" d="M 78.855469 57.878906 L 71.5625 57.878906 L 71.5625 50.605469 L 78.855469 50.605469 Z M 268.398438 50.605469 L 261.109375 50.605469 L 261.109375 57.878906 L 268.398438 57.878906 Z M 86.144531 79.703125 L 78.855469 79.703125 L 78.855469 86.980469 L 86.144531 86.980469 Z M 64.273438 101.53125 L 56.984375 101.53125 L 56.984375 108.804688 L 64.273438 108.804688 Z M 108.015625 101.53125 L 100.722656 101.53125 L 100.722656 108.804688 L 108.015625 108.804688 Z M 86.144531 123.355469 L 78.855469 123.355469 L 78.855469 130.628906 L 86.144531 130.628906 Z M 122.59375 145.179688 L 137.175781 145.179688 L 137.175781 137.90625 L 122.59375 137.90625 Z M 122.59375 145.179688 L 115.304688 145.179688 L 115.304688 159.730469 L 122.59375 159.730469 Z M 224.65625 145.179688 L 239.238281 145.179688 L 239.238281 137.90625 L 224.65625 137.90625 Z M 224.65625 145.179688 L 217.367188 145.179688 L 217.367188 159.730469 L 224.65625 159.730469 Z M 246.527344 108.804688 L 253.820312 108.804688 L 253.820312 101.53125 L 246.527344 101.53125 Z M 268.398438 86.980469 L 275.691406 86.980469 L 275.691406 79.703125 L 268.398438 79.703125 Z M 290.269531 108.804688 L 297.558594 108.804688 L 297.558594 101.53125 L 290.269531 101.53125 Z M 268.398438 130.628906 L 275.691406 130.628906 L 275.691406 123.355469 L 268.398438 123.355469 Z M 268.398438 130.628906 " fill-opacity="1" fill-rule="nonzero"/><path fill="#181425" d="M 210.078125 79.703125 L 217.367188 79.703125 L 217.367188 86.980469 L 210.078125 86.980469 Z M 195.496094 86.980469 L 202.789062 86.980469 L 202.789062 79.703125 L 195.496094 79.703125 Z M 180.917969 86.980469 L 188.207031 86.980469 L 188.207031 79.703125 L 180.917969 79.703125 Z M 166.335938 86.980469 L 173.625 86.980469 L 173.625 79.703125 L 166.335938 79.703125 Z M 151.757812 86.980469 L 159.046875 86.980469 L 159.046875 79.703125 L 151.757812 79.703125 Z M 137.175781 86.980469 L 144.464844 86.980469 L 144.464844 79.703125 L 137.175781 79.703125 Z M 217.367188 94.253906 L 224.65625 94.253906 L 224.65625 86.980469 L 217.367188 86.980469 Z M 202.789062 94.253906 L 210.078125 94.253906 L 210.078125 86.980469 L 202.789062 86.980469 Z M 188.207031 94.253906 L 195.496094 94.253906 L 195.496094 86.980469 L 188.207031 86.980469 Z M 173.625 94.253906 L 180.917969 94.253906 L 180.917969 86.980469 L 173.625 86.980469 Z M 159.046875 94.253906 L 166.335938 94.253906 L 166.335938 86.980469 L 159.046875 86.980469 Z M 144.464844 94.253906 L 151.757812 94.253906 L 151.757812 86.980469 L 144.464844 86.980469 Z M 210.078125 101.53125 L 217.367188 101.53125 L 217.367188 94.253906 L 210.078125 94.253906 Z M 195.496094 101.53125 L 202.789062 101.53125 L 202.789062 94.253906 L 195.496094 94.253906 Z M 180.917969 101.53125 L 188.207031 101.53125 L 188.207031 94.253906 L 180.917969 94.253906 Z M 166.335938 101.53125 L 173.625 101.53125 L 173.625 94.253906 L 166.335938 94.253906 Z M 151.757812 101.53125 L 159.046875 101.53125 L 159.046875 94.253906 L 151.757812 94.253906 Z M 137.175781 101.53125 L 144.464844 101.53125 L 144.464844 94.253906 L 137.175781 94.253906 Z M 217.367188 108.804688 L 224.65625 108.804688 L 224.65625 101.53125 L 217.367188 101.53125 Z M 202.789062 108.804688 L 210.078125 108.804688 L 210.078125 101.53125 L 202.789062 101.53125 Z M 188.207031 108.804688 L 195.496094 108.804688 L 195.496094 101.53125 L 188.207031 101.53125 Z M 173.625 108.804688 L 180.917969 108.804688 L 180.917969 101.53125 L 173.625 101.53125 Z M 159.046875 108.804688 L 166.335938 108.804688 L 166.335938 101.53125 L 159.046875 101.53125 Z M 144.464844 108.804688 L 151.757812 108.804688 L 151.757812 101.53125 L 144.464844 101.53125 Z M 210.078125 116.078125 L 217.367188 116.078125 L 217.367188 108.804688 L 210.078125 108.804688 Z M 195.496094 116.078125 L 202.789062 116.078125 L 202.789062 108.804688 L 195.496094 108.804688 Z M 180.917969 116.078125 L 188.207031 116.078125 L 188.207031 108.804688 L 180.917969 108.804688 Z M 166.335938 116.078125 L 173.625 116.078125 L 173.625 108.804688 L 166.335938 108.804688 Z M 151.757812 116.078125 L 159.046875 116.078125 L 159.046875 108.804688 L 151.757812 108.804688 Z M 137.175781 116.078125 L 144.464844 116.078125 L 144.464844 108.804688 L 137.175781 108.804688 Z M 137.175781 116.078125 " fill-opacity="1" fill-rule="nonzero"/><path fill="#fee761" d="M 64.273438 65.15625 L 108.015625 65.15625 L 108.015625 72.429688 L 64.273438 72.429688 Z M 56.984375 79.703125 L 64.273438 79.703125 L 64.273438 72.429688 L 56.984375 72.429688 Z M 49.691406 94.253906 L 56.984375 94.253906 L 56.984375 79.703125 L 49.691406 79.703125 Z M 42.402344 123.355469 L 49.691406 123.355469 L 49.691406 94.253906 L 42.402344 94.253906 Z M 35.113281 145.179688 L 42.402344 145.179688 L 42.402344 123.355469 L 35.113281 123.355469 Z M 27.820312 188.828125 L 35.113281 188.828125 L 35.113281 145.179688 L 27.820312 145.179688 Z M 20.53125 225.203125 L 27.820312 225.203125 L 27.820312 188.828125 L 20.53125 188.828125 Z M 35.113281 239.753906 L 35.113281 225.203125 L 27.820312 225.203125 L 27.820312 239.753906 Z M 49.691406 247.03125 L 49.691406 239.753906 L 35.113281 239.753906 L 35.113281 247.03125 Z M 253.820312 65.15625 L 253.820312 72.429688 L 297.558594 72.429688 L 297.558594 65.15625 Z M 231.949219 79.703125 L 231.949219 116.078125 L 239.238281 116.078125 L 239.238281 79.703125 L 253.820312 79.703125 L 253.820312 72.429688 L 231.949219 72.429688 Z M 224.65625 123.355469 L 231.949219 123.355469 L 231.949219 116.078125 L 224.65625 116.078125 Z M 129.886719 116.078125 L 129.886719 123.355469 L 137.175781 123.355469 L 137.175781 116.078125 Z M 261.109375 181.554688 L 261.109375 196.105469 L 268.398438 196.105469 L 268.398438 181.554688 Z M 268.398438 196.105469 L 268.398438 210.65625 L 275.691406 210.65625 L 275.691406 196.105469 Z M 275.691406 210.65625 L 275.691406 225.203125 L 282.980469 225.203125 L 282.980469 210.65625 Z M 282.980469 225.203125 L 282.980469 239.753906 L 290.269531 239.753906 L 290.269531 225.203125 Z M 290.269531 247.03125 L 297.558594 247.03125 L 297.558594 239.753906 L 290.269531 239.753906 Z M 137.175781 130.628906 L 224.65625 130.628906 L 224.65625 123.355469 L 137.175781 123.355469 Z M 137.175781 130.628906 " fill-opacity="1" fill-rule="nonzero"/><path fill="#e43b44" d="M 166.335938 130.628906 L 166.335938 137.90625 L 151.757812 137.90625 L 151.757812 130.628906 Z M 166.335938 145.179688 L 173.625 145.179688 L 173.625 137.90625 L 166.335938 137.90625 Z M 173.625 130.628906 L 173.625 137.90625 L 188.207031 137.90625 L 188.207031 145.179688 L 195.496094 145.179688 L 195.496094 130.628906 Z M 202.789062 130.628906 L 202.789062 137.90625 L 210.078125 137.90625 L 210.078125 130.628906 Z M 202.789062 130.628906 " fill-opacity="1" fill-rule="nonzero"/><g fill="#ff00ff" fill-opacity="1"><g transform="translate(92.756754, 257.304358)"><g><path d="M 42.796875 -40.757812 L 2.039062 -40.757812 L 2.039062 -32.605469 L 18.339844 -32.605469 L 18.339844 0 L 26.492188 0 L 26.492188 -32.605469 L 42.796875 -32.605469 Z M 42.796875 -40.757812 "/></g></g></g><g fill="#ff00ff" fill-opacity="1"><g transform="translate(137.585193, 257.304358)"><g><path d="M 42.796875 -40.757812 L 10.191406 -40.757812 C 5.707031 -40.757812 2.039062 -37.089844 2.039062 -32.605469 L 2.039062 -8.152344 C 2.039062 -3.667969 5.707031 0 10.191406 0 L 42.796875 0 L 42.796875 -8.152344 L 10.191406 -8.152344 L 10.191406 -16.304688 L 42.796875 -16.304688 L 42.796875 -24.453125 L 10.191406 -24.453125 L 10.191406 -32.605469 L 42.796875 -32.605469 Z M 42.796875 -40.757812 "/></g></g></g><g fill="#ff00ff" fill-opacity="1"><g transform="translate(182.413631, 257.304358)"><g><path d="M 42.796875 -32.605469 C 42.796875 -37.089844 39.128906 -40.757812 34.644531 -40.757812 L 2.039062 -40.757812 L 2.039062 0 L 10.191406 0 L 10.191406 -16.304688 L 14.980469 -16.304688 L 30.058594 -1.222656 C 30.875 -0.40625 31.894531 0 33.015625 0 L 42.796875 0 L 42.796875 -8.152344 L 34.644531 -8.152344 L 26.492188 -16.304688 L 34.644531 -16.304688 C 39.128906 -16.304688 42.796875 -19.972656 42.796875 -24.453125 Z M 34.644531 -32.605469 L 34.644531 -24.453125 L 10.191406 -24.453125 L 10.191406 -32.605469 Z M 34.644531 -32.605469 "/></g></g></g><g fill="#ff00ff" fill-opacity="1"><g transform="translate(227.242069, 257.304358)"><g><path d="M 10.191406 -40.757812 C 5.707031 -40.757812 2.039062 -37.089844 2.039062 -32.605469 L 2.039062 0 L 10.191406 0 L 10.191406 -16.304688 L 34.644531 -16.304688 L 34.644531 0 L 42.796875 0 L 42.796875 -32.605469 C 42.796875 -37.089844 39.128906 -40.757812 34.644531 -40.757812 Z M 10.191406 -32.605469 L 34.644531 -32.605469 L 34.644531 -24.453125 L 10.191406 -24.453125 Z M 10.191406 -32.605469 "/></g></g></g><g fill="#00ffff" fill-opacity="1"><g transform="translate(90.846194, 257.304358)"><g><path d="M 42.796875 -40.757812 L 2.039062 -40.757812 L 2.039062 -32.605469 L 18.339844 -32.605469 L 18.339844 0 L 26.492188 0 L 26.492188 -32.605469 L 42.796875 -32.605469 Z M 42.796875 -40.757812 "/></g></g></g><g fill="#00ffff" fill-opacity="1"><g transform="translate(135.674632, 257.304358)"><g><path d="M 42.796875 -40.757812 L 10.191406 -40.757812 C 5.707031 -40.757812 2.039062 -37.089844 2.039062 -32.605469 L 2.039062 -8.152344 C 2.039062 -3.667969 5.707031 0 10.191406 0 L 42.796875 0 L 42.796875 -8.152344 L 10.191406 -8.152344 L 10.191406 -16.304688 L 42.796875 -16.304688 L 42.796875 -24.453125 L 10.191406 -24.453125 L 10.191406 -32.605469 L 42.796875 -32.605469 Z M 42.796875 -40.757812 "/></g></g></g><g fill="#00ffff" fill-opacity="1"><g transform="translate(180.50307, 257.304358)"><g><path d="M 42.796875 -32.605469 C 42.796875 -37.089844 39.128906 -40.757812 34.644531 -40.757812 L 2.039062 -40.757812 L 2.039062 0 L 10.191406 0 L 10.191406 -16.304688 L 14.980469 -16.304688 L 30.058594 -1.222656 C 30.875 -0.40625 31.894531 0 33.015625 0 L 42.796875 0 L 42.796875 -8.152344 L 34.644531 -8.152344 L 26.492188 -16.304688 L 34.644531 -16.304688 C 39.128906 -16.304688 42.796875 -19.972656 42.796875 -24.453125 Z M 34.644531 -32.605469 L 34.644531 -24.453125 L 10.191406 -24.453125 L 10.191406 -32.605469 Z M 34.644531 -32.605469 "/></g></g></g><g fill="#00ffff" fill-opacity="1"><g transform="translate(225.331509, 257.304358)"><g><path d="M 10.191406 -40.757812 C 5.707031 -40.757812 2.039062 -37.089844 2.039062 -32.605469 L 2.039062 0 L 10.191406 0 L 10.191406 -16.304688 L 34.644531 -16.304688 L 34.644531 0 L 42.796875 0 L 42.796875 -32.605469 C 42.796875 -37.089844 39.128906 -40.757812 34.644531 -40.757812 Z M 10.191406 -32.605469 L 34.644531 -32.605469 L 34.644531 -24.453125 L 10.191406 -24.453125 Z M 10.191406 -32.605469 "/></g></g></g><g fill="#000000" fill-opacity="1"><g transform="translate(91.801475, 257.304358)"><g><path d="M 42.796875 -40.757812 L 2.039062 -40.757812 L 2.039062 -32.605469 L 18.339844 -32.605469 L 18.339844 0 L 26.492188 0 L 26.492188 -32.605469 L 42.796875 -32.605469 Z M 42.796875 -40.757812 "/></g></g></g><g fill="#000000" fill-opacity="1"><g transform="translate(136.629914, 257.304358)"><g><path d="M 42.796875 -40.757812 L 10.191406 -40.757812 C 5.707031 -40.757812 2.039062 -37.089844 2.039062 -32.605469 L 2.039062 -8.152344 C 2.039062 -3.667969 5.707031 0 10.191406 0 L 42.796875 0 L 42.796875 -8.152344 L 10.191406 -8.152344 L 10.191406 -16.304688 L 42.796875 -16.304688 L 42.796875 -24.453125 L 10.191406 -24.453125 L 10.191406 -32.605469 L 42.796875 -32.605469 Z M 42.796875 -40.757812 "/></g></g></g><g fill="#000000" fill-opacity="1"><g transform="translate(181.458352, 257.304358)"><g><path d="M 42.796875 -32.605469 C 42.796875 -37.089844 39.128906 -40.757812 34.644531 -40.757812 L 2.039062 -40.757812 L 2.039062 0 L 10.191406 0 L 10.191406 -16.304688 L 14.980469 -16.304688 L 30.058594 -1.222656 C 30.875 -0.40625 31.894531 0 33.015625 0 L 42.796875 0 L 42.796875 -8.152344 L 34.644531 -8.152344 L 26.492188 -16.304688 L 34.644531 -16.304688 C 39.128906 -16.304688 42.796875 -19.972656 42.796875 -24.453125 Z M 34.644531 -32.605469 L 34.644531 -24.453125 L 10.191406 -24.453125 L 10.191406 -32.605469 Z M 34.644531 -32.605469 "/></g></g></g><g fill="#000000" fill-opacity="1"><g transform="translate(226.28679, 257.304358)"><g><path d="M 10.191406 -40.757812 C 5.707031 -40.757812 2.039062 -37.089844 2.039062 -32.605469 L 2.039062 0 L 10.191406 0 L 10.191406 -16.304688 L 34.644531 -16.304688 L 34.644531 0 L 42.796875 0 L 42.796875 -32.605469 C 42.796875 -37.089844 39.128906 -40.757812 34.644531 -40.757812 Z M 10.191406 -32.605469 L 34.644531 -32.605469 L 34.644531 -24.453125 L 10.191406 -24.453125 Z M 10.191406 -32.605469 "/></g></g></g><g fill="#ff00ff" fill-opacity="1"><g transform="translate(54.444259, 312.746991)"><g><path d="M 48.917969 -46.589844 L 11.648438 -46.589844 C 6.523438 -46.589844 2.328125 -42.398438 2.328125 -37.273438 L 2.328125 -9.316406 C 2.328125 -4.191406 6.523438 0 11.648438 0 L 39.601562 0 C 44.785156 0 48.917969 -4.25 48.917969 -9.316406 L 48.917969 -27.953125 L 20.964844 -27.953125 L 20.964844 -18.636719 L 39.601562 -18.636719 L 39.601562 -9.316406 L 11.648438 -9.316406 L 11.648438 -37.273438 L 48.917969 -37.273438 Z M 48.917969 -46.589844 "/></g></g></g><g fill="#ff00ff" fill-opacity="1"><g transform="translate(105.687007, 312.746991)"><g><path d="M 11.648438 -46.589844 C 6.523438 -46.589844 2.328125 -42.398438 2.328125 -37.273438 L 2.328125 0 L 11.648438 0 L 11.648438 -18.636719 L 39.601562 -18.636719 L 39.601562 0 L 48.917969 0 L 48.917969 -37.273438 C 48.917969 -42.398438 44.726562 -46.589844 39.601562 -46.589844 Z M 11.648438 -37.273438 L 39.601562 -37.273438 L 39.601562 -27.953125 L 11.648438 -27.953125 Z M 11.648438 -37.273438 "/></g></g></g><g fill="#ff00ff" fill-opacity="1"><g transform="translate(156.929756, 312.746991)"><g><path d="M 11.648438 -46.589844 C 6.523438 -46.589844 2.328125 -42.398438 2.328125 -37.273438 L 2.328125 0 L 11.648438 0 L 11.648438 -37.273438 L 20.964844 -37.273438 L 20.964844 0 L 30.285156 0 L 30.285156 -37.273438 L 39.601562 -37.273438 L 39.601562 0 L 48.917969 0 L 48.917969 -37.273438 C 48.917969 -42.398438 44.726562 -46.589844 39.601562 -46.589844 Z M 11.648438 -46.589844 "/></g></g></g><g fill="#ff00ff" fill-opacity="1"><g transform="translate(208.172504, 312.746991)"><g><path d="M 48.917969 -46.589844 L 11.648438 -46.589844 C 6.523438 -46.589844 2.328125 -42.398438 2.328125 -37.273438 L 2.328125 -9.316406 C 2.328125 -4.191406 6.523438 0 11.648438 0 L 48.917969 0 L 48.917969 -9.316406 L 11.648438 -9.316406 L 11.648438 -18.636719 L 48.917969 -18.636719 L 48.917969 -27.953125 L 11.648438 -27.953125 L 11.648438 -37.273438 L 48.917969 -37.273438 Z M 48.917969 -46.589844 "/></g></g></g><g fill="#ff00ff" fill-opacity="1"><g transform="translate(259.415252, 312.746991)"><g><path d="M 48.917969 -46.589844 L 11.648438 -46.589844 C 6.523438 -46.589844 2.328125 -42.398438 2.328125 -37.273438 L 2.328125 -27.953125 C 2.328125 -22.828125 6.523438 -18.636719 11.648438 -18.636719 L 39.601562 -18.636719 L 39.601562 -9.316406 L 2.328125 -9.316406 L 2.328125 0 L 39.601562 0 C 44.726562 0 48.917969 -4.191406 48.917969 -9.316406 L 48.917969 -18.636719 C 48.917969 -23.761719 44.726562 -27.953125 39.601562 -27.953125 L 11.648438 -27.953125 L 11.648438 -37.273438 L 48.917969 -37.273438 Z M 48.917969 -46.589844 "/></g></g></g><g fill="#00ffff" fill-opacity="1"><g transform="translate(52.260257, 312.746991)"><g><path d="M 48.917969 -46.589844 L 11.648438 -46.589844 C 6.523438 -46.589844 2.328125 -42.398438 2.328125 -37.273438 L 2.328125 -9.316406 C 2.328125 -4.191406 6.523438 0 11.648438 0 L 39.601562 0 C 44.785156 0 48.917969 -4.25 48.917969 -9.316406 L 48.917969 -27.953125 L 20.964844 -27.953125 L 20.964844 -18.636719 L 39.601562 -18.636719 L 39.601562 -9.316406 L 11.648438 -9.316406 L 11.648438 -37.273438 L 48.917969 -37.273438 Z M 48.917969 -46.589844 "/></g></g></g><g fill="#00ffff" fill-opacity="1"><g transform="translate(103.503005, 312.746991)"><g><path d="M 11.648438 -46.589844 C 6.523438 -46.589844 2.328125 -42.398438 2.328125 -37.273438 L 2.328125 0 L 11.648438 0 L 11.648438 -18.636719 L 39.601562 -18.636719 L 39.601562 0 L 48.917969 0 L 48.917969 -37.273438 C 48.917969 -42.398438 44.726562 -46.589844 39.601562 -46.589844 Z M 11.648438 -37.273438 L 39.601562 -37.273438 L 39.601562 -27.953125 L 11.648438 -27.953125 Z M 11.648438 -37.273438 "/></g></g></g><g fill="#00ffff" fill-opacity="1"><g transform="translate(154.745753, 312.746991)"><g><path d="M 11.648438 -46.589844 C 6.523438 -46.589844 2.328125 -42.398438 2.328125 -37.273438 L 2.328125 0 L 11.648438 0 L 11.648438 -37.273438 L 20.964844 -37.273438 L 20.964844 0 L 30.285156 0 L 30.285156 -37.273438 L 39.601562 -37.273438 L 39.601562 0 L 48.917969 0 L 48.917969 -37.273438 C 48.917969 -42.398438 44.726562 -46.589844 39.601562 -46.589844 Z M 11.648438 -46.589844 "/></g></g></g><g fill="#00ffff" fill-opacity="1"><g transform="translate(205.988502, 312.746991)"><g><path d="M 48.917969 -46.589844 L 11.648438 -46.589844 C 6.523438 -46.589844 2.328125 -42.398438 2.328125 -37.273438 L 2.328125 -9.316406 C 2.328125 -4.191406 6.523438 0 11.648438 0 L 48.917969 0 L 48.917969 -9.316406 L 11.648438 -9.316406 L 11.648438 -18.636719 L 48.917969 -18.636719 L 48.917969 -27.953125 L 11.648438 -27.953125 L 11.648438 -37.273438 L 48.917969 -37.273438 Z M 48.917969 -46.589844 "/></g></g></g><g fill="#00ffff" fill-opacity="1"><g transform="translate(257.23125, 312.746991)"><g><path d="M 48.917969 -46.589844 L 11.648438 -46.589844 C 6.523438 -46.589844 2.328125 -42.398438 2.328125 -37.273438 L 2.328125 -27.953125 C 2.328125 -22.828125 6.523438 -18.636719 11.648438 -18.636719 L 39.601562 -18.636719 L 39.601562 -9.316406 L 2.328125 -9.316406 L 2.328125 0 L 39.601562 0 C 44.726562 0 48.917969 -4.191406 48.917969 -9.316406 L 48.917969 -18.636719 C 48.917969 -23.761719 44.726562 -27.953125 39.601562 -27.953125 L 11.648438 -27.953125 L 11.648438 -37.273438 L 48.917969 -37.273438 Z M 48.917969 -46.589844 "/></g></g></g><g fill="#000000" fill-opacity="1"><g transform="translate(53.352259, 312.746991)"><g><path d="M 48.917969 -46.589844 L 11.648438 -46.589844 C 6.523438 -46.589844 2.328125 -42.398438 2.328125 -37.273438 L 2.328125 -9.316406 C 2.328125 -4.191406 6.523438 0 11.648438 0 L 39.601562 0 C 44.785156 0 48.917969 -4.25 48.917969 -9.316406 L 48.917969 -27.953125 L 20.964844 -27.953125 L 20.964844 -18.636719 L 39.601562 -18.636719 L 39.601562 -9.316406 L 11.648438 -9.316406 L 11.648438 -37.273438 L 48.917969 -37.273438 Z M 48.917969 -46.589844 "/></g></g></g><g fill="#000000" fill-opacity="1"><g transform="translate(104.595007, 312.746991)"><g><path d="M 11.648438 -46.589844 C 6.523438 -46.589844 2.328125 -42.398438 2.328125 -37.273438 L 2.328125 0 L 11.648438 0 L 11.648438 -18.636719 L 39.601562 -18.636719 L 39.601562 0 L 48.917969 0 L 48.917969 -37.273438 C 48.917969 -42.398438 44.726562 -46.589844 39.601562 -46.589844 Z M 11.648438 -37.273438 L 39.601562 -37.273438 L 39.601562 -27.953125 L 11.648438 -27.953125 Z M 11.648438 -37.273438 "/></g></g></g><g fill="#000000" fill-opacity="1"><g transform="translate(155.837756, 312.746991)"><g><path d="M 11.648438 -46.589844 C 6.523438 -46.589844 2.328125 -42.398438 2.328125 -37.273438 L 2.328125 0 L 11.648438 0 L 11.648438 -37.273438 L 20.964844 -37.273438 L 20.964844 0 L 30.285156 0 L 30.285156 -37.273438 L 39.601562 -37.273438 L 39.601562 0 L 48.917969 0 L 48.917969 -37.273438 C 48.917969 -42.398438 44.726562 -46.589844 39.601562 -46.589844 Z M 11.648438 -46.589844 "/></g></g></g><g fill="#000000" fill-opacity="1"><g transform="translate(207.080504, 312.746991)"><g><path d="M 48.917969 -46.589844 L 11.648438 -46.589844 C 6.523438 -46.589844 2.328125 -42.398438 2.328125 -37.273438 L 2.328125 -9.316406 C 2.328125 -4.191406 6.523438 0 11.648438 0 L 48.917969 0 L 48.917969 -9.316406 L 11.648438 -9.316406 L 11.648438 -18.636719 L 48.917969 -18.636719 L 48.917969 -27.953125 L 11.648438 -27.953125 L 11.648438 -37.273438 L 48.917969 -37.273438 Z M 48.917969 -46.589844 "/></g></g></g><g fill="#000000" fill-opacity="1"><g transform="translate(258.323253, 312.746991)"><g><path d="M 48.917969 -46.589844 L 11.648438 -46.589844 C 6.523438 -46.589844 2.328125 -42.398438 2.328125 -37.273438 L 2.328125 -27.953125 C 2.328125 -22.828125 6.523438 -18.636719 11.648438 -18.636719 L 39.601562 -18.636719 L 39.601562 -9.316406 L 2.328125 -9.316406 L 2.328125 0 L 39.601562 0 C 44.726562 0 48.917969 -4.191406 48.917969 -9.316406 L 48.917969 -18.636719 C 48.917969 -23.761719 44.726562 -27.953125 39.601562 -27.953125 L 11.648438 -27.953125 L 11.648438 -37.273438 L 48.917969 -37.273438 Z M 48.917969 -46.589844 "/></g></g></g></svg>