<svg width="20" height="20" viewBox="0 0 20 20" fill="none" xmlns="http://www.w3.org/2000/svg">
<path d="M17.1054 2.27661H2.89454C2.55278 2.27661 2.27667 2.55272 2.27667 2.89447V17.1053C2.27667 17.4471 2.55278 17.7232 2.89454 17.7232H17.1054C17.4471 17.7232 17.7233 17.4471 17.7233 17.1053V2.89447C17.7233 2.55272 17.4471 2.27661 17.1054 2.27661ZM15.3213 6.78508H14.0875C13.1202 6.78508 12.9329 7.24462 12.9329 7.92041V9.40907H15.2421L14.9409 11.7396H12.9329V17.7232H10.5251V11.7415H8.5113V9.40907H10.5251V7.69064C10.5251 5.6961 11.7435 4.60905 13.5237 4.60905C14.3771 4.60905 15.1089 4.67276 15.3232 4.70173V6.78508H15.3213Z" fill="white"/>
</svg>
