<svg width="20" height="20" viewBox="0 0 20 20" fill="none" xmlns="http://www.w3.org/2000/svg">
<path d="M9.99997 7.39651C8.56638 7.39651 7.39646 8.56644 7.39646 10C7.39646 11.4336 8.56638 12.6035 9.99997 12.6035C11.4336 12.6035 12.6035 11.4336 12.6035 10C12.6035 8.56644 11.4336 7.39651 9.99997 7.39651ZM17.8086 10C17.8086 8.92191 17.8183 7.85355 17.7578 6.77737C17.6972 5.52737 17.4121 4.418 16.498 3.50394C15.582 2.58792 14.4746 2.30472 13.2246 2.24417C12.1465 2.18363 11.0781 2.19339 10.0019 2.19339C8.9238 2.19339 7.85544 2.18363 6.77927 2.24417C5.52927 2.30472 4.41989 2.58988 3.50583 3.50394C2.58981 4.41995 2.30661 5.52737 2.24606 6.77737C2.18552 7.8555 2.19528 8.92386 2.19528 10C2.19528 11.0762 2.18552 12.1465 2.24606 13.2227C2.30661 14.4727 2.59177 15.5821 3.50583 16.4961C4.42185 17.4121 5.52927 17.6953 6.77927 17.7559C7.85739 17.8164 8.92575 17.8067 10.0019 17.8067C11.08 17.8067 12.1484 17.8164 13.2246 17.7559C14.4746 17.6953 15.584 17.4102 16.498 16.4961C17.414 15.5801 17.6972 14.4727 17.7578 13.2227C17.8203 12.1465 17.8086 11.0782 17.8086 10ZM9.99997 14.0059C7.78317 14.0059 5.99411 12.2168 5.99411 10C5.99411 7.78323 7.78317 5.99417 9.99997 5.99417C12.2168 5.99417 14.0058 7.78323 14.0058 10C14.0058 12.2168 12.2168 14.0059 9.99997 14.0059ZM14.1699 6.76566C13.6523 6.76566 13.2343 6.34769 13.2343 5.83011C13.2343 5.31253 13.6523 4.89456 14.1699 4.89456C14.6875 4.89456 15.1054 5.31253 15.1054 5.83011C15.1056 5.95301 15.0815 6.07473 15.0345 6.18831C14.9876 6.30188 14.9187 6.40508 14.8318 6.49198C14.7449 6.57889 14.6417 6.64779 14.5281 6.69476C14.4145 6.74172 14.2928 6.76581 14.1699 6.76566Z" fill="white"/>
</svg>
